<?xml version="1.0" standalone="no"?><!DOCTYPE svg PUBLIC "-//W3C//DTD SVG 1.1//EN" "http://www.w3.org/Graphics/SVG/1.1/DTD/svg11.dtd"><svg t="1773908824497" class="icon" viewBox="0 0 1024 1024" version="1.1" xmlns="http://www.w3.org/2000/svg" p-id="2023" xmlns:xlink="http://www.w3.org/1999/xlink" width="256" height="256"><path d="M959.82 118.92v-0.82c0-0.27 0-0.53-0.07-0.79s-0.05-0.52-0.08-0.79-0.1-0.57-0.15-0.85-0.08-0.47-0.13-0.7-0.07-0.3-0.11-0.46a21.48 21.48 0 0 1-6.91 20.87L677.56 373.84v299.71h-43V389H374.33v255.19L111.44 856.13 112.87 389l261.46-0.72V346H644l280.16-243.1a21.38 21.38 0 0 1 10.51-4.9H393.4a21.49 21.49 0 0 0-13.49 4.76L72.16 350.83l-0.1 0.09-0.44 0.38-1 0.91-0.45 0.47q-0.45 0.46-0.87 1c-0.14 0.16-0.28 0.32-0.41 0.49-0.29 0.36-0.57 0.73-0.83 1.11-0.1 0.15-0.21 0.29-0.31 0.43-0.34 0.51-0.66 1-1 1.57l-0.28 0.56a18.633 18.633 0 0 0-0.85 1.89c-0.1 0.26-0.25 0.66-0.37 1s-0.18 0.53-0.26 0.8c-0.13 0.43-0.23 0.87-0.34 1.31 0 0.21-0.09 0.4-0.13 0.61-0.12 0.58-0.2 1.17-0.27 1.76v0.59c0 0.49-0.07 1-0.08 1.48v537.55q0 0.9 0.09 1.8v0.21c0.07 0.63 0.17 1.25 0.29 1.88 0 0.25 0.11 0.5 0.17 0.75s0.18 0.73 0.28 1.09 0.17 0.58 0.27 0.86c0 0.12 0.07 0.25 0.11 0.37s0.16 0.4 0.24 0.6 0.21 0.55 0.33 0.82c0.19 0.43 0.4 0.85 0.61 1.27 0.1 0.2 0.2 0.39 0.31 0.58 0.27 0.48 0.55 1 0.85 1.41 0.12 0.17 0.24 0.33 0.35 0.5 0.26 0.36 0.52 0.72 0.8 1.06l0.4 0.48c0.29 0.35 0.6 0.69 0.92 1l0.37 0.39c0.45 0.44 0.91 0.86 1.4 1.26l0.12 0.1c0.44 0.36 0.9 0.69 1.36 1l0.58 0.38 1 0.61 0.68 0.38c0.35 0.18 0.7 0.34 1 0.5l0.67 0.31c0.55 0.22 1.11 0.43 1.68 0.61 0.21 0.07 0.43 0.12 0.64 0.18 0.41 0.12 0.82 0.22 1.24 0.32l0.73 0.14c0.42 0.08 0.85 0.15 1.29 0.2l0.65 0.08c0.65 0.06 1.31 0.1 2 0.1h570.51a21.49 21.49 0 0 0 18.47-10.53L951.37 673.6l1.12-1c0.37-0.32 0.72-0.66 1.06-1l0.3-0.31c0.27-0.28 0.54-0.57 0.79-0.87l0.21-0.24c0.3-0.36 0.58-0.73 0.86-1.11 0.09-0.11 0.17-0.23 0.25-0.35 0.2-0.3 0.4-0.59 0.59-0.89l0.22-0.36c0.24-0.4 0.47-0.8 0.68-1.21 0-0.1 0.1-0.2 0.14-0.3 0.17-0.34 0.33-0.68 0.48-1 0.06-0.13 0.11-0.26 0.16-0.39 0.18-0.42 0.34-0.84 0.48-1.27a0.14 0.14 0 0 0 0-0.07c0.16-0.45 0.29-0.91 0.41-1.37l0.09-0.38c0.09-0.37 0.17-0.74 0.24-1.12l0.06-0.32c0.08-0.47 0.14-0.93 0.19-1.41v-0.34c0-0.37 0-0.73 0.06-1.1V119.47c0.08-0.19 0.07-0.37 0.06-0.55z m-585.49 45.44v180.92l-225.61 0.62zM633 881.53l-482.35 1.33 252.8-204.93h230.2z m44.58-25.89V677.93h203.47zM959.12 114c0-0.18-0.09-0.37-0.14-0.55s-0.07-0.2-0.1-0.31c0.12 0.43 0.25 0.86 0.35 1.3z" p-id="2024" fill="#8a8a8a"></path><path d="M959.23 114.42v0.09c0 0.03 0.01-0.06 0-0.09zM938.63 98h1.29c0.2 0 0.4 0 0.6 0.06s0.65 0.06 1 0.11l0.68 0.12 0.87 0.17 0.73 0.19 0.8 0.22c0.25 0.07 0.49 0.16 0.74 0.24l0.75 0.27 0.74 0.31 0.46 0.18 0.27 0.14 0.69 0.35 0.73 0.39 0.63 0.37 0.73 0.47 0.57 0.4 0.71 0.53 0.54 0.44c0.22 0.18 0.44 0.37 0.65 0.57l0.52 0.48c0.21 0.2 0.4 0.4 0.6 0.61l0.5 0.54c0.18 0.2 0.35 0.41 0.53 0.62s0.32 0.39 0.47 0.59 0.32 0.44 0.48 0.66 0.29 0.41 0.43 0.63 0.3 0.48 0.45 0.72l0.37 0.62c0.16 0.29 0.3 0.58 0.45 0.87s0.18 0.36 0.26 0.54a15.77 15.77 0 0 1 0.62 1.47c0.14 0.38 0.26 0.77 0.39 1.16A21.43 21.43 0 0 0 934.67 98h4z" p-id="2025" fill="#8a8a8a"></path></svg>