<?xml version="1.0" standalone="no"?><!DOCTYPE svg PUBLIC "-//W3C//DTD SVG 1.1//EN" "http://www.w3.org/Graphics/SVG/1.1/DTD/svg11.dtd"><svg t="1773908808449" class="icon" viewBox="0 0 1024 1024" version="1.1" xmlns="http://www.w3.org/2000/svg" p-id="1359" xmlns:xlink="http://www.w3.org/1999/xlink" width="256" height="256"><path d="M965.83 114v-1.36c0-0.27 0-0.55-0.07-0.82s-0.05-0.5-0.08-0.75-0.1-0.6-0.16-0.91-0.07-0.43-0.12-0.65-0.17-0.71-0.26-1.07l-0.12-0.46a22.81 22.81 0 0 0-1.13-3c-0.08-0.15-0.16-0.3-0.23-0.45-0.16-0.32-0.32-0.64-0.49-0.95s-0.23-0.39-0.35-0.59-0.3-0.5-0.46-0.75l-0.42-0.61c-0.16-0.22-0.32-0.45-0.49-0.67s-0.31-0.39-0.47-0.58-0.35-0.43-0.54-0.64l-0.49-0.53-0.6-0.61-0.52-0.48c-0.21-0.2-0.43-0.39-0.66-0.58s-0.35-0.29-0.53-0.43l-0.71-0.53-0.57-0.4-0.73-0.47-0.63-0.37c-0.24-0.14-0.48-0.27-0.73-0.39l-0.69-0.35c-0.1 0-0.18-0.1-0.28-0.14l-0.45-0.19c-0.25-0.1-0.49-0.21-0.74-0.3s-0.5-0.19-0.76-0.27l-0.73-0.25-0.81-0.22c-0.24-0.06-0.48-0.13-0.72-0.18s-0.59-0.12-0.88-0.17l-0.67-0.12-1-0.12-0.57-0.06c-0.45 0-0.89 0-1.34-0.05H391.74a21.52 21.52 0 0 0-13.5 4.76L66.17 348.8l-0.1 0.1-0.43 0.37c-0.35 0.3-0.68 0.6-1 0.92l-0.46 0.46q-0.45 0.47-0.87 1l-0.41 0.49c-0.29 0.36-0.56 0.73-0.83 1.11-0.1 0.15-0.21 0.29-0.3 0.43-0.34 0.51-0.66 1-1 1.57-0.1 0.19-0.18 0.38-0.28 0.57-0.19 0.36-0.37 0.73-0.53 1.11s-0.22 0.51-0.32 0.77-0.25 0.66-0.37 1-0.18 0.53-0.25 0.8c-0.13 0.43-0.24 0.87-0.34 1.32 0 0.2-0.1 0.4-0.14 0.6-0.12 0.58-0.2 1.17-0.27 1.76 0 0.2 0 0.39-0.05 0.59 0 0.49-0.07 1-0.07 1.48v545.02c0 0.6 0 1.2 0.09 1.8v0.21c0.06 0.63 0.16 1.26 0.28 1.88 0 0.25 0.11 0.5 0.17 0.75s0.18 0.73 0.28 1.09l0.27 0.87c0 0.12 0.07 0.24 0.11 0.36s0.17 0.4 0.25 0.6 0.2 0.55 0.32 0.82c0.19 0.43 0.4 0.85 0.61 1.27l0.31 0.59c0.27 0.48 0.55 1 0.86 1.4 0.11 0.17 0.23 0.33 0.35 0.5 0.25 0.36 0.52 0.72 0.79 1.06 0.13 0.17 0.26 0.33 0.4 0.49 0.3 0.35 0.61 0.68 0.92 1l0.38 0.39c0.44 0.44 0.91 0.87 1.39 1.27l0.12 0.09c0.44 0.36 0.9 0.7 1.37 1l0.58 0.38c0.33 0.21 0.66 0.42 1 0.61l0.68 0.38c0.35 0.18 0.7 0.34 1.06 0.5l0.66 0.31c0.55 0.22 1.11 0.43 1.68 0.61 0.21 0.07 0.43 0.12 0.64 0.18 0.41 0.12 0.82 0.23 1.24 0.32l0.73 0.14c0.43 0.08 0.86 0.15 1.29 0.2l0.65 0.08c0.65 0.06 1.31 0.1 2 0.1h578.51A21.47 21.47 0 0 0 676.63 921l280.72-245.37 1.13-1c0.37-0.32 0.72-0.66 1.06-1l0.3-0.31 0.79-0.87 0.21-0.24c0.3-0.36 0.58-0.73 0.86-1.11l0.25-0.36c0.2-0.29 0.4-0.58 0.59-0.88l0.22-0.36c0.24-0.4 0.47-0.81 0.68-1.22 0-0.09 0.09-0.19 0.14-0.29 0.17-0.34 0.33-0.68 0.48-1l0.16-0.39c0.17-0.42 0.34-0.85 0.48-1.28a0.14 0.14 0 0 0 0-0.06c0.15-0.45 0.28-0.91 0.4-1.37 0-0.13 0.07-0.25 0.1-0.38 0.09-0.37 0.17-0.75 0.24-1.13l0.06-0.31c0.07-0.47 0.14-0.94 0.19-1.41v-0.33c0-0.37 0.06-0.75 0.07-1.12v-0.73zM372.7 343.24l-229.94 0.63 229.94-185z m43 42.88l220.86-0.61L635.8 637H415.7z m-43 0.12v260L105.51 861.59 107 387zM144.75 888.37L401.82 680h233.84L635 887z m503.44-545.89l-172.33 0.52-60.16 0.17V135.45h471.05zM679.64 680H887L679.64 861.13z m0-43V373.72l243.19-212.44V637z" p-id="1360" fill="#8a8a8a"></path></svg>