<?xml version="1.0" standalone="no"?><!DOCTYPE svg PUBLIC "-//W3C//DTD SVG 1.1//EN" "http://www.w3.org/Graphics/SVG/1.1/DTD/svg11.dtd"><svg t="1774324741693" class="icon" viewBox="0 0 1024 1024" version="1.1" xmlns="http://www.w3.org/2000/svg" p-id="4832" xmlns:xlink="http://www.w3.org/1999/xlink" width="256" height="256"><path d="M424.2944 421.4784l-55.4496 39.168v-39.168c0-22.8352-19.6096-45.6704-45.7216-45.6704H45.7728c-22.8352 0-45.6704 19.5584-45.6704 45.6704v176.2304c0 22.8352 19.5584 45.6704 45.6704 45.6704h280.6272c22.8352 0 45.6704-19.6096 45.6704-45.6704v-39.168l55.5008 39.168c9.728 0 16.2816-9.8304 16.2816-22.8864V444.3136c-6.5024-13.056-13.056-22.8352-19.5584-22.8352zM81.664 476.9792a29.2352 29.2352 0 0 1-29.3376-29.3888c0-16.3328 13.056-29.3888 29.3376-29.3888 16.3328 0 29.3888 13.056 29.3888 29.3888a29.2352 29.2352 0 0 1-29.3888 29.3888z m903.0656 543.8976l-52.0704-39.424 39.424-52.0192 52.0192 39.424-39.424 52.0192zM613.4784 281.1904L505.856 362.752l39.168 52.224 52.224-39.168v267.5712l-52.224-39.168-39.168 52.224 107.6736 81.5616 19.6096-29.3888h29.3376V310.528h-29.3376l-19.6096-29.3376zM984.3712 0l39.424 52.0704-52.0192 39.3728-39.424-52.0704L984.3712 0z m-142.3872 140.8512l-16.384-19.5584-107.6224 78.336 39.168 52.224 84.8384-62.0544v639.5392l-84.8384-61.952-39.168 52.224 107.6736 78.2848 16.3328-19.6096v16.384h65.2288V124.5184h-65.2288v16.2816z" fill="#8a8a8a" p-id="4833"></path></svg>