<?xml version="1.0" standalone="no"?><!DOCTYPE svg PUBLIC "-//W3C//DTD SVG 1.1//EN" "http://www.w3.org/Graphics/SVG/1.1/DTD/svg11.dtd"><svg t="1773908816964" class="icon" viewBox="0 0 1024 1024" version="1.1" xmlns="http://www.w3.org/2000/svg" p-id="1565" xmlns:xlink="http://www.w3.org/1999/xlink" width="256" height="256"><path d="M959.8 117.3c-0.1-0.3 0-0.5-0.1-0.8 0-0.3-0.1-0.6-0.2-0.9-0.1-0.3-0.1-0.5-0.1-0.7 0-0.2-0.2-0.7-0.2-1-0.1-0.3-0.1-0.4-0.1-0.5-0.2-0.5-0.3-1-0.5-1.5l-0.6-1.5c-0.1-0.2-0.2-0.4-0.3-0.5s-0.3-0.6-0.5-0.9l-0.4-0.6c-0.2-0.2-0.3-0.5-0.5-0.7s-0.3-0.4-0.4-0.6c-0.1-0.2-0.3-0.4-0.5-0.7-0.2-0.2-0.3-0.4-0.5-0.6s-0.3-0.4-0.5-0.6l-0.5-0.5-0.6-0.6-0.5-0.5c-0.2-0.2-0.4-0.4-0.7-0.6l-0.5-0.4-0.7-0.5-0.6-0.4-0.7-0.5-0.6-0.4-0.7-0.4-0.7-0.4-0.3-0.1-0.5-0.2-0.7-0.3-0.8-0.3c-0.3-0.1-0.5-0.2-0.7-0.2l-0.8-0.2-0.7-0.2-0.9-0.2-0.7-0.1c-0.3 0-0.7-0.1-1-0.1-0.3 0-0.4 0-0.6-0.1H393.4c-4.9 0-9.7 1.7-13.5 4.8l-307.8 248-0.1 0.1-0.4 0.4-1 0.9-0.5 0.5c-0.3 0.3-0.6 0.6-0.9 1-0.1 0.2-0.3 0.3-0.4 0.5-0.3 0.4-0.6 0.7-0.8 1.1-0.1 0.1-0.2 0.3-0.3 0.4-0.3 0.5-0.7 1-1 1.6l-0.3 0.6c-0.2 0.4-0.4 0.7-0.5 1.1s-0.2 0.5-0.3 0.8c-0.1 0.3-0.3 0.7-0.4 1-0.1 0.3-0.2 0.5-0.3 0.8-0.1 0.4-0.2 0.9-0.3 1.3 0 0.2-0.1 0.4-0.1 0.6l-0.3 1.8v0.6c0 0.5-0.1 1-0.1 1.5v537.5c0 0.6 0 1.2 0.1 1.8v0.2c0.1 0.6 0.2 1.3 0.3 1.9 0 0.3 0.1 0.5 0.2 0.8s0.2 0.7 0.3 1.1 0.2 0.6 0.3 0.9c0 0.1 0.1 0.3 0.1 0.4s0.2 0.4 0.2 0.6 0.2 0.5 0.3 0.8c0.2 0.4 0.4 0.8 0.6 1.3l0.3 0.6c0.3 0.5 0.5 1 0.8 1.4 0.1 0.2 0.2 0.3 0.4 0.5 0.3 0.4 0.5 0.7 0.8 1.1l0.4 0.5c0.3 0.3 0.6 0.7 0.9 1l0.4 0.4c0.5 0.4 0.9 0.9 1.4 1.3l0.1 0.1c0.4 0.4 0.9 0.7 1.4 1l0.6 0.4 1 0.6 0.7 0.4c0.3 0.2 0.7 0.3 1 0.5l0.7 0.3c0.5 0.2 1.1 0.4 1.7 0.6 0.2 0.1 0.4 0.1 0.6 0.2l1.2 0.3 0.7 0.1c0.4 0.1 0.8 0.2 1.3 0.2l0.7 0.1c0.6 0.1 1.3 0.1 2 0.1h570.5c7.6 0 14.6-4 18.5-10.5L951.4 674l1.1-1c0.4-0.3 0.7-0.7 1.1-1l0.3-0.3c0.3-0.3 0.5-0.6 0.8-0.9l0.2-0.2c0.3-0.4 0.6-0.7 0.9-1.1l0.3-0.3 0.6-0.9 0.2-0.4c0.2-0.4 0.5-0.8 0.7-1.2 0-0.1 0.1-0.2 0.1-0.3 0.2-0.3 0.3-0.7 0.5-1 0.1-0.1 0.1-0.3 0.2-0.4 0.2-0.4 0.3-0.8 0.5-1.3v-0.1c0.2-0.5 0.3-0.9 0.4-1.4l0.1-0.4c0.1-0.4 0.2-0.7 0.2-1.1l0.1-0.3c0.1-0.5 0.1-0.9 0.2-1.4v-0.3c0-0.4 0-0.7 0.1-1.1V119.5h0.1v-1.3c-0.3-0.4-0.3-0.6-0.3-0.9zM112.9 389l261.5-0.7v255.9l-263 211.9 1.5-467.1zM633 881.5l-482.3 1.3 252.8-204.9h230.2l-0.7 203.6z m0.8-246.6H417.3V388.2l217.2-0.6-0.7 247.3z m43.8 220.7V677.9H881L677.6 855.6z m239.2-220.7H677.6V375.8l239.2-209v468.1z" p-id="1566" fill="#8a8a8a"></path></svg>