<?xml version="1.0" standalone="no"?><!DOCTYPE svg PUBLIC "-//W3C//DTD SVG 1.1//EN" "http://www.w3.org/Graphics/SVG/1.1/DTD/svg11.dtd"><svg t="1773911104144" class="icon" viewBox="0 0 1024 1024" version="1.1" xmlns="http://www.w3.org/2000/svg" p-id="4894" xmlns:xlink="http://www.w3.org/1999/xlink" width="256" height="256"><path d="M1024 288h-64V64h-224V0h288v288z" fill="#8a8a8a" p-id="4895"></path><path d="M551.264 427.904L969.6 9.536l45.248 45.248-418.368 418.4zM288 1024H0v-288h64v224h224v64z" fill="#8a8a8a" p-id="4896"></path><path d="M9.28 969.216L427.424 551.04l45.248 45.248L54.528 1014.464zM192 352H128V128h224v64H192v160zM128 416h64v192H128zM416 128h192v64h-192zM896 896h-224v-64h160v-160h64v224zM832 416h64v192h-64zM416 832h192v64h-192z" fill="#8a8a8a" p-id="4897"></path></svg>